<?xml version="1.0" encoding="UTF-8" standalone="no"?>
<!-- Created with Inkscape (http://www.inkscape.org/) -->

<svg
   xmlns:dc="http://purl.org/dc/elements/1.1/"
   xmlns:cc="http://creativecommons.org/ns#"
   xmlns:rdf="http://www.w3.org/1999/02/22-rdf-syntax-ns#"
   xmlns:svg="http://www.w3.org/2000/svg"
   xmlns="http://www.w3.org/2000/svg"
   xmlns:sodipodi="http://sodipodi.sourceforge.net/DTD/sodipodi-0.dtd"
   xmlns:inkscape="http://www.inkscape.org/namespaces/inkscape"
   width="295.35715"
   height="295.35715"
   id="svg2"
   version="1.1"
   inkscape:version="0.48.5 r10040"
   sodipodi:docname="kaniza_square.svg"
   inkscape:export-filename="/home/greff/Programming/Qwlouse.github.io/images/kaniza_square.png"
   inkscape:export-xdpi="90"
   inkscape:export-ydpi="90">
  <defs
     id="defs4" />
  <sodipodi:namedview
     id="base"
     pagecolor="#ffffff"
     bordercolor="#666666"
     borderopacity="1.0"
     inkscape:pageopacity="0.0"
     inkscape:pageshadow="2"
     inkscape:zoom="1.4"
     inkscape:cx="-10.897736"
     inkscape:cy="181.91142"
     inkscape:document-units="px"
     inkscape:current-layer="layer1"
     showgrid="false"
     inkscape:snap-bbox="true"
     inkscape:snap-bbox-midpoints="true"
     inkscape:snap-bbox-edge-midpoints="true"
     inkscape:bbox-nodes="true"
     fit-margin-top="0"
     fit-margin-left="0"
     fit-margin-right="0"
     fit-margin-bottom="0"
     inkscape:window-width="1909"
     inkscape:window-height="975"
     inkscape:window-x="2"
     inkscape:window-y="64"
     inkscape:window-maximized="0" />
  <metadata
     id="metadata7">
    <rdf:RDF>
      <cc:Work
         rdf:about="">
        <dc:format>image/svg+xml</dc:format>
        <dc:type
           rdf:resource="http://purl.org/dc/dcmitype/StillImage" />
        <dc:title></dc:title>
      </cc:Work>
    </rdf:RDF>
  </metadata>
  <g
     inkscape:label="Layer 1"
     inkscape:groupmode="layer"
     id="layer1"
     transform="translate(-64.464289,-300.3979)">
    <path
       style="fill:#ffffff;fill-opacity:1;stroke:none"
       d="M 51.96875 0 C 23.269673 0 0 23.26967 0 51.96875 C 0 78.981052 20.615633 101.17141 46.96875 103.6875 L 46.96875 46.96875 L 103.6875 46.96875 C 101.17141 20.615632 78.981052 0 51.96875 0 z "
       transform="translate(64.464289,300.3979)"
       id="path2985" />
    <path
       style="fill:#ffffff;fill-opacity:1;stroke:none"
       d="M 243.40625 0 C 216.39388 0 194.17225 20.615535 191.65625 46.96875 L 248.40625 46.96875 L 248.40625 103.6875 C 274.75762 101.1697 295.34375 78.979801 295.34375 51.96875 C 295.34375 23.26967 272.10533 0 243.40625 0 z "
       transform="translate(64.464289,300.3979)"
       id="path2987" />
    <path
       style="fill:#ffffff;fill-opacity:1;stroke:none"
       d="M 46.96875 191.65625 C 20.615536 194.17225 0 216.39388 0 243.40625 C 0 272.10533 23.269673 295.34375 51.96875 295.34375 C 78.979801 295.34375 101.1697 274.75762 103.6875 248.40625 L 46.96875 248.40625 L 46.96875 191.65625 z "
       transform="translate(64.464289,300.3979)"
       id="path2989" />
    <path
       style="fill:#ffffff;fill-opacity:1;stroke:none"
       d="M 248.40625 191.65625 L 248.40625 248.40625 L 191.65625 248.40625 C 194.17396 274.75771 216.39513 295.34375 243.40625 295.34375 C 272.10533 295.34375 295.34375 272.10533 295.34375 243.40625 C 295.34375 216.39513 274.75771 194.17396 248.40625 191.65625 z "
       transform="translate(64.464289,300.3979)"
       id="path2991" />
  </g>
</svg>
