<?xml version="1.0" encoding="UTF-8" standalone="no"?>
<!-- Created with Inkscape (http://www.inkscape.org/) -->

<svg
   xmlns:dc="http://purl.org/dc/elements/1.1/"
   xmlns:cc="http://creativecommons.org/ns#"
   xmlns:rdf="http://www.w3.org/1999/02/22-rdf-syntax-ns#"
   xmlns:svg="http://www.w3.org/2000/svg"
   xmlns="http://www.w3.org/2000/svg"
   xmlns:sodipodi="http://sodipodi.sourceforge.net/DTD/sodipodi-0.dtd"
   xmlns:inkscape="http://www.inkscape.org/namespaces/inkscape"
   width="295.35715"
   height="295.35715"
   id="svg2"
   version="1.1"
   inkscape:version="0.48.5 r10040"
   sodipodi:docname="kaniza_square.svg">
  <defs
     id="defs4" />
  <sodipodi:namedview
     id="base"
     pagecolor="#ffffff"
     bordercolor="#666666"
     borderopacity="1.0"
     inkscape:pageopacity="0.0"
     inkscape:pageshadow="2"
     inkscape:zoom="1.4"
     inkscape:cx="123.38798"
     inkscape:cy="168.12226"
     inkscape:document-units="px"
     inkscape:current-layer="layer1"
     showgrid="false"
     inkscape:snap-bbox="true"
     inkscape:snap-bbox-midpoints="true"
     inkscape:snap-bbox-edge-midpoints="true"
     inkscape:bbox-nodes="true"
     fit-margin-top="0"
     fit-margin-left="0"
     fit-margin-right="0"
     fit-margin-bottom="0"
     inkscape:window-width="1909"
     inkscape:window-height="975"
     inkscape:window-x="2"
     inkscape:window-y="64"
     inkscape:window-maximized="0" />
  <metadata
     id="metadata7">
    <rdf:RDF>
      <cc:Work
         rdf:about="">
        <dc:format>image/svg+xml</dc:format>
        <dc:type
           rdf:resource="http://purl.org/dc/dcmitype/StillImage" />
        <dc:title></dc:title>
      </cc:Work>
    </rdf:RDF>
  </metadata>
  <g
     inkscape:label="Layer 1"
     inkscape:groupmode="layer"
     id="layer1"
     transform="translate(-64.464289,-300.3979)">
    <rect
       style="fill:#ffffff;fill-opacity:1;stroke:none"
       id="rect3014"
       width="295.35715"
       height="297.995"
       x="64.464287"
       y="297.76004" />
    <path
       sodipodi:type="arc"
       style="fill:#000000;fill-opacity:1;stroke:none"
       id="path2985"
       sodipodi:cx="119.64286"
       sodipodi:cy="354.86218"
       sodipodi:rx="34.642857"
       sodipodi:ry="34.642857"
       d="m 154.28572,354.86218 c 0,19.13272 -15.51014,34.64286 -34.64286,34.64286 -19.13272,0 -34.642856,-15.51014 -34.642856,-34.64286 0,-19.13272 15.510136,-34.64285 34.642856,-34.64285 19.13272,0 34.64286,15.51013 34.64286,34.64285 z"
       transform="matrix(1.5,0,0,1.5,-63.035717,-179.93109)"
       inkscape:export-filename="/home/greff/Programming/Qwlouse.github.io/images/kanzisa_square.png"
       inkscape:export-xdpi="90"
       inkscape:export-ydpi="90" />
    <path
       d="m 154.28572,354.86218 c 0,19.13272 -15.51014,34.64286 -34.64286,34.64286 -19.13272,0 -34.642856,-15.51014 -34.642856,-34.64286 0,-19.13272 15.510136,-34.64285 34.642856,-34.64285 19.13272,0 34.64286,15.51013 34.64286,34.64285 z"
       sodipodi:ry="34.642857"
       sodipodi:rx="34.642857"
       sodipodi:cy="354.86218"
       sodipodi:cx="119.64286"
       id="path2987"
       style="fill:#000000;fill-opacity:1;stroke:none"
       sodipodi:type="arc"
       transform="matrix(1.5,0,0,1.5,128.39286,-179.93109)"
       inkscape:export-filename="/home/greff/Programming/Qwlouse.github.io/images/kanzisa_square.png"
       inkscape:export-xdpi="90"
       inkscape:export-ydpi="90" />
    <path
       d="m 154.28572,354.86218 c 0,19.13272 -15.51014,34.64286 -34.64286,34.64286 -19.13272,0 -34.642856,-15.51014 -34.642856,-34.64286 0,-19.13272 15.510136,-34.64285 34.642856,-34.64285 19.13272,0 34.64286,15.51013 34.64286,34.64285 z"
       sodipodi:ry="34.642857"
       sodipodi:rx="34.642857"
       sodipodi:cy="354.86218"
       sodipodi:cx="119.64286"
       id="path2989"
       style="fill:#000000;fill-opacity:1;stroke:none"
       sodipodi:type="arc"
       transform="matrix(1.5,0,0,1.5,-63.035717,11.497479)"
       inkscape:export-filename="/home/greff/Programming/Qwlouse.github.io/images/kanzisa_square.png"
       inkscape:export-xdpi="90"
       inkscape:export-ydpi="90" />
    <path
       transform="matrix(1.5,0,0,1.5,128.39286,11.497479)"
       sodipodi:type="arc"
       style="fill:#000000;fill-opacity:1;stroke:none"
       id="path2991"
       sodipodi:cx="119.64286"
       sodipodi:cy="354.86218"
       sodipodi:rx="34.642857"
       sodipodi:ry="34.642857"
       d="m 154.28572,354.86218 c 0,19.13272 -15.51014,34.64286 -34.64286,34.64286 -19.13272,0 -34.642856,-15.51014 -34.642856,-34.64286 0,-19.13272 15.510136,-34.64285 34.642856,-34.64285 19.13272,0 34.64286,15.51013 34.64286,34.64285 z"
       inkscape:export-filename="/home/greff/Programming/Qwlouse.github.io/images/kanzisa_square.png"
       inkscape:export-xdpi="90"
       inkscape:export-ydpi="90" />
    <rect
       style="fill:#ffffff;fill-opacity:1;stroke:none"
       id="rect2993"
       width="201.42857"
       height="201.42857"
       x="111.42857"
       y="347.36218"
       inkscape:export-filename="/home/greff/Programming/Qwlouse.github.io/images/kanzisa_square.png"
       inkscape:export-xdpi="90"
       inkscape:export-ydpi="90" />
  </g>
</svg>
